***************************************************************

Beautiful Creatures 2013 1080p x264 ACC - alrmothe

***************************************************************

Title : Beautiful Creatures
YEAR: 2013
GENRE : Action | Crime | Thriller       
imdb URL :http://www.imdb.com/title/tt1559547/
Format: MP4
Overall bit rate: 7451 kbps
Format version: Version 4 / Version 2
File size: 6.44 GiB
Duration:  2h 03mn
sub: Arabic,English,French
***************************************************************

Video
Format : AVC 
Format/Info : Advanced Video Codec 
Format profile : High@L4.1 
Format settings, CABAC : Yes 
Format settings, ReFrames : 4 frames  
Codec ID : V_MPEG4/ISO/AVC  
Bit rate : 7000 kbps 
Width : 1920 pixels 
Height : 800 pixels 
Display aspect ratio : 16:9 
Frame rate : 23.976 fps 
Color space : YUV 
Chroma subsampling : 4:2:0 
Bit depth : 8 bits 
Scan type : Progressive 
Bits/(Pixel*Frame) : 0.190 
Stream size: 6.05 GiB 


Audio 
Format: ACC
Bit rate :448 Kbps
Channel(s) : 6 channels
Channel positions:Front: L C R, Side: L R, LFE
Sampling rate: 48.0 KHz
Bit depth: 24 bits
Compression mode: Lossy
Stream size: 396 GiB
Language : English

***************************************************************

[Source[/color 
http://img199.imageshack.us/img199/2480/vlcsnap2013050523h20m12.png



[After Encoded [/color 
http://img811.imageshack.us/img811/8250/vlcsnap2013050523h22m52.png





[color=red]Screenshots[/color] 
http://img819.imageshack.us/img819/8340/vlcsnap2013050522h42m25.png 
http://img812.imageshack.us/img812/2316/vlcsnap2013050523h25m33.png 
http://img839.imageshack.us/img839/117/vlcsnap2013050523h00m39.png 
http://img109.imageshack.us/img109/9247/vlcsnap2013050522h57m43.png 
http://img822.imageshack.us/img822/9774/vlcsnap2013050522h55m16.png 
http://img811.imageshack.us/img811/2626/vlcsnap2013050522h53m57.png 
http://img22.imageshack.us/img22/8167/vlcsnap2013050522h50m06.png
[img]http://img803.imageshack.us/img803/6333/beautifulcreatures20131.png[/img]




Trailer



